<svg width="77" height="72" viewBox="0 0 77 72" fill="none" xmlns="http://www.w3.org/2000/svg">
<path d="M14.7038 51.963C11.3992 48.681 9.625 45 9.625 39.033C9.625 28.533 17.5079 19.122 28.9713 14.469L31.8363 18.603C21.1365 24.015 19.0447 31.038 18.2105 35.466C19.9334 34.632 22.1888 34.341 24.3994 34.533C30.1872 35.034 34.7495 39.477 34.7495 45C34.7495 47.7848 33.5664 50.4555 31.4605 52.4246C29.3546 54.3937 26.4985 55.5 23.5203 55.5C21.8733 55.4865 20.2457 55.1669 18.7321 54.5597C17.2184 53.9524 15.8491 53.0697 14.7038 51.963ZM46.7871 51.963C43.4825 48.681 41.7083 45 41.7083 39.033C41.7083 28.533 49.5912 19.122 61.0546 14.469L63.9196 18.603C53.2198 24.015 51.128 31.038 50.2938 35.466C52.0167 34.632 54.2722 34.341 56.4827 34.533C62.2705 35.034 66.8328 39.477 66.8328 45C66.8328 47.7848 65.6497 50.4555 63.5438 52.4246C61.438 54.3937 58.5818 55.5 55.6036 55.5C53.9567 55.4865 52.329 55.1669 50.8154 54.5597C49.3018 53.9524 47.9325 53.0697 46.7871 51.963Z" fill="#6B51CB"/>
</svg>
