<svg width="39" height="37" viewBox="0 0 39 37" fill="none" xmlns="http://www.w3.org/2000/svg">
<path d="M19.5016 13.8749C18.2087 13.8749 16.9687 14.3622 16.0545 15.2295C15.1402 16.0969 14.6266 17.2733 14.6266 18.4999C14.6266 19.7265 15.1402 20.9029 16.0545 21.7703C16.9687 22.6376 18.2087 23.1249 19.5016 23.1249C20.7946 23.1249 22.0345 22.6376 22.9488 21.7703C23.863 20.9029 24.3766 19.7265 24.3766 18.4999C24.3766 17.2733 23.863 16.0969 22.9488 15.2295C22.0345 14.3622 20.7946 13.8749 19.5016 13.8749ZM19.5016 10.7916C21.6565 10.7916 23.7231 11.6037 25.2469 13.0493C26.7706 14.4949 27.6266 16.4555 27.6266 18.4999C27.6266 20.5443 26.7706 22.5049 25.2469 23.9505C23.7231 25.3961 21.6565 26.2083 19.5016 26.2083C17.3467 26.2083 15.2801 25.3961 13.7564 23.9505C12.2326 22.5049 11.3766 20.5443 11.3766 18.4999C11.3766 16.4555 12.2326 14.4949 13.7564 13.0493C15.2801 11.6037 17.3467 10.7916 19.5016 10.7916ZM30.0641 10.4062C30.0641 10.9173 29.8501 11.4074 29.4692 11.7688C29.0883 12.1302 28.5716 12.3333 28.0329 12.3333C27.4942 12.3333 26.9775 12.1302 26.5966 11.7688C26.2156 11.4074 26.0016 10.9173 26.0016 10.4062C26.0016 9.89507 26.2156 9.40491 26.5966 9.04352C26.9775 8.68212 27.4942 8.47909 28.0329 8.47909C28.5716 8.47909 29.0883 8.68212 29.4692 9.04352C29.8501 9.40491 30.0641 9.89507 30.0641 10.4062ZM19.5016 6.16659C15.4814 6.16659 14.8249 6.17738 12.9545 6.256C11.6805 6.31304 10.8257 6.47492 10.0327 6.76784C9.36913 6.99899 8.76917 7.36949 8.27775 7.85163C7.76914 8.31783 7.37807 8.88699 7.13375 9.51663C6.825 10.272 6.65438 11.0814 6.59588 12.2885C6.51137 13.9905 6.5 14.5856 6.5 18.4999C6.5 22.3155 6.51138 22.9368 6.59425 24.7113C6.65438 25.9184 6.825 26.7309 7.13212 27.4817C7.40837 28.1523 7.73338 28.6348 8.27288 29.1467C8.8205 29.6647 9.32912 29.9745 10.0279 30.2305C10.8306 30.5249 11.6854 30.6883 12.9529 30.7438C14.7469 30.824 15.3741 30.8333 19.5 30.8333C23.5219 30.8333 24.1767 30.8225 26.0471 30.7438C27.3179 30.6868 28.1726 30.5249 28.9673 30.2335C29.6303 30.0013 30.23 29.6309 30.7222 29.1498C31.2699 28.6318 31.5965 28.1492 31.8663 27.4848C32.175 26.7263 32.3472 25.9153 32.4057 24.7098C32.4902 23.0093 32.5 22.4127 32.5 18.4999C32.5 14.6858 32.4886 14.063 32.4057 12.2885C32.3456 11.083 32.1734 10.269 31.8663 9.51663C31.6213 8.88765 31.231 8.31872 30.7239 7.85163C30.2327 7.36885 29.6327 6.9978 28.9689 6.76629C28.1726 6.47338 27.3179 6.3115 26.0471 6.256C24.2547 6.17584 23.6275 6.16659 19.5 6.16659M19.5 3.08325C23.9151 3.08325 24.466 3.09867 26.1999 3.17575C27.9289 3.25284 29.1086 3.51029 30.1437 3.89263C31.2162 4.28421 32.1198 4.81454 33.0233 5.67017C33.8496 6.44084 34.4889 7.37308 34.8969 8.402C35.2983 9.38404 35.5713 10.5033 35.6525 12.1452C35.7289 13.7886 35.75 14.3112 35.75 18.4999C35.75 22.6886 35.7337 23.2113 35.6525 24.8547C35.5713 26.4965 35.2983 27.6143 34.8969 28.5978C34.4901 29.6273 33.8505 30.5598 33.0233 31.3297C32.2107 32.1133 31.2281 32.7199 30.1437 33.1072C29.1086 33.488 27.9289 33.747 26.1999 33.8241C24.466 33.8965 23.9151 33.9166 19.5 33.9166C15.0849 33.9166 14.534 33.9012 12.8001 33.8241C11.0711 33.747 9.893 33.488 8.85625 33.1072C7.77128 32.721 6.78848 32.1143 5.97675 31.3297C5.15033 30.5591 4.51094 29.6268 4.10313 28.5978C3.70013 27.6158 3.42875 26.4965 3.3475 24.8547C3.2695 23.2113 3.25 22.6886 3.25 18.4999C3.25 14.3112 3.26625 13.7886 3.3475 12.1452C3.42875 10.5033 3.70013 9.38559 4.10313 8.402C4.50976 7.37245 5.14931 6.43996 5.97675 5.67017C6.78872 4.88582 7.77145 4.27917 8.85625 3.89263C9.89137 3.51029 11.0695 3.25284 12.8001 3.17575C14.5356 3.10329 15.0865 3.08325 19.5016 3.08325" fill="white"/>
</svg>
